#!OML:ASF F:\VICON\USERDATA\INSTALL\rory3\rory3.ASF
:FULLY-SPECIFIED
:DEGREES
395
root 2.84973 17.883 9.6281 -180.722 -0.339394 177.98
lowerback 12.783 1.05106 1.84598
upperback 1.15733 1.57498 1.52207
thorax -5.94362 0.667486 0.289089
lowerneck -15.8362 -1.02346 -12.7331
upperneck 37.5122 -3.99856 6.64959
head 16.5023 -3.87919 4.09882
rclavicle -4.47266e-015 -2.22639e-014
rhumerus -32.2155 -21.3274 -69.3248
rradius 33.4767
rwrist 3.57095
rhand -17.5754 6.61319
rfingers 7.12502
rthumb 8.68013 -23.1884
lclavicle -4.47266e-015 -2.22639e-014
lhumerus -33.482 9.69609 84.7618
lradius 33.5063
lwrist -4.93031
lhand -22.4319 21.3379
lfingers 7.12502
lthumb 3.99173 51.2802
rfemur -6.165 -0.682904 15.5861
rtibia 29.6761
rfoot -21.1995 4.52979
rtoes -5.62841
lfemur -9.02172 -3.71097 -15.5239
ltibia 32.295
lfoot -18.1537 2.69937
ltoes -6.50539
396
root 2.77967 17.8824 9.63259 -180.689 -0.137546 178.038
lowerback 12.7969 1.01233 1.9904
upperback 1.11593 1.54652 1.51487
thorax -5.99122 0.649837 0.204609
lowerneck -15.8173 -1.00103 -12.6616
upperneck 37.4622 -3.92791 6.51359
head 16.4563 -3.85515 4.0356
rclavicle 2.44505e-014 5.1684e-014
rhumerus -32.1264 -21.0613 -69.4631
rradius 33.5254
rwrist 3.39511
rhand -17.5503 7.41659
rfingers 7.12502
rthumb 8.70431 -22.3839
lclavicle 2.44505e-014 5.1684e-014
lhumerus -33.5757 9.80589 84.6721
lradius 33.5626
lwrist -4.88181
lhand -22.2162 21.5575
lfingers 7.12502
lthumb 4.19999 51.4958
rfemur -6.09061 -0.522117 15.3995
rtibia 29.3267
rfoot -21.0518 4.58589
rtoes -6.17566
lfemur -8.84897 -3.94541 -14.8176
ltibia 31.8375
lfoot -17.6899 2.88739
ltoes -8.67186
397
root 2.70938 17.8959 9.63148 -180.685 0.0500408 177.988
lowerback 12.7661 0.742838 1.967
upperback 1.11355 1.5382 1.4732
thorax -5.98143 0.798092 0.159725
lowerneck -15.7658 -0.983649 -12.6622
upperneck 37.3932 -3.89171 6.48594
head 16.4015 -3.84204 4.0275
rclavicle -1.87852e-014 7.15625e-015
rhumerus -31.9721 -20.7602 -69.6784
rradius 33.6386
rwrist 3.4846
rhand -17.4848 7.50846
rfingers 7.12502
rthumb 8.76749 -22.2894
lclavicle -1.87852e-014 7.15625e-015
lhumerus -33.564 9.8607 84.5958
lradius 33.5572
lwrist -4.61777
lhand -22.2508 22.2286
lfingers 7.12502
lthumb 4.16657 52.1676
rfemur -5.94139 -0.421889 15.0702
rtibia 28.958
rfoot -20.8876 4.84594
rtoes -5.66093
lfemur -8.68504 -4.24331 -14.2286
ltibia 31.3618
lfoot -17.2378 2.94613
ltoes -5.90913
398
root 2.64048 17.9064 9.63338 -180.721 0.180423 177.963
lowerback 12.7838 0.713174 1.96672
upperback 1.1148 1.49827 1.46106
thorax -5.99002 0.778194 0.153867
lowerneck -15.7568 -0.980738 -12.7168
upperneck 37.3988 -3.91355 6.5566
head 16.4078 -3.8546 4.06419
rclavicle -1.5207e-014 -2.94201e-014
rhumerus -31.891 -20.5971 -69.8031
rradius 33.7939
rwrist 3.68229
rhand -17.3753 7.2873
rfingers 7.12502
rthumb 8.8732 -22.5061
lclavicle -1.5207e-014 -2.94201e-014
lhumerus -33.5152 10.096 84.4683
lradius 33.476
lwrist -4.64282
lhand -22.3607 22.4419
lfingers 7.12502
lthumb 4.0605 52.383
rfemur -5.73432 -0.318079 14.7903
rtibia 28.5867
rfoot -20.6926 4.95962
rtoes -5.6617
lfemur -8.51194 -4.55273 -13.5874
ltibia 30.8684
lfoot -16.7499 2.92783
ltoes -2.81241
399
root 2.57464 17.9107 9.63881 -180.711 0.30679 177.972
lowerback 12.8309 0.69881 1.95154
upperback 1.0896 1.47699 1.45421
thorax -6.04328 0.766742 0.158059
lowerneck -15.8487 -0.986039 -12.7371
upperneck 37.4729 -3.93299 6.58054
head 16.4731 -3.86967 4.07587
rclavicle -6.55989e-015 4.77083e-015
rhumerus -31.8361 -20.5037 -69.8595
rradius 33.8385
rwrist 4.18743
rhand -16.9643 7.48722
rfingers 7.12502
rthumb 9.26981 -22.289
lclavicle -6.55989e-015 4.77083e-015
lhumerus -33.5309 10.2781 84.36
lradius 33.4783
lwrist -4.72777
lhand -22.286 22.0643
lfingers 7.12502
lthumb 4.13261 52.004
rfemur -5.60758 -0.0548501 14.6149
rtibia 28.2387
rfoot -20.4299 4.76713
rtoes -6.56745
lfemur -8.37506 -4.79897 -12.8812
ltibia 30.3433
lfoot -16.0906 2.99601
ltoes -2.05127
